<svg xmlns="http://www.w3.org/2000/svg" viewBox="0 0 100 100">
  <g transform="translate(10.14, 13.15) scale(6.1) translate(-7.394, -52.756)">
    <path fill="#601A7E" d="m 10.017,64.839 1.19,-2.711 c 0.311,-0.046 0.61,-0.078 0.9,-0.102 0.289,-0.024 0.562,-0.035 0.827,-0.035 0.531,-0.005 1.06,0.05 1.58,0.163 0.458,0.105 0.898,0.28 1.303,0.52 0.402,0.241 0.768,0.54 1.086,0.888 0.353,0.39 0.662,0.819 0.923,1.277 h 2.626 L 14.822,52.756 H 13.01 L 7.394,64.839 Z m 3.91,-8.906 2.172,4.8 a 3.69,3.69 0 0 0 -1.21,-0.536 6.901,6.901 0 0 0 -1.737,-0.189 c -0.322,0 -0.674,0.017 -1.052,0.052 z" />
  </g>
</svg>
