<svg xmlns="http://www.w3.org/2000/svg" viewBox="0 0 200 200" width="100%" height="100%">
  <!-- Pink Segment (Top-Right) -->
  <path fill="#ff9ebb" d="M 100 20 A 80 80 0 0 1 180 100 L 145 100 A 45 45 0 0 0 100 55 Z" />
  
  <!-- Light Grey Segment (Top-Left) -->
  <path fill="#eaeaea" d="M 43.43 43.43 A 80 80 0 0 1 100 20 L 100 55 A 45 45 0 0 0 68.18 68.18 Z" />
  
  <!-- Sky Blue Segment (Left) -->
  <path fill="#7ad2eb" d="M 43.43 156.57 A 80 80 0 0 1 43.43 43.43 L 68.18 68.18 A 45 45 0 0 0 68.18 131.82 Z" />
  
  <!-- Brown Segment (Bottom-Left) -->
  <path fill="#6c4b31" d="M 100 180 A 80 80 0 0 1 43.43 156.57 L 68.18 131.82 A 45 45 0 0 0 100 145 Z" />
  
  <!-- Dark Charcoal Segment with Crossbar (Bottom-Right) -->
  <path fill="#232323" d="M 180 100 A 80 80 0 0 1 100 180 L 100 145 A 45 45 0 0 0 120 140.31 L 120 120 L 110 120 L 110 100 L 180 100 Z" />
</svg>
